<?xml version="1.0" encoding="utf-8"?>
<!-- Generator: Adobe Illustrator 19.2.1, SVG Export Plug-In . SVG Version: 6.00 Build 0)  -->
<svg version="1.1" id="layer" xmlns="http://www.w3.org/2000/svg" xmlns:xlink="http://www.w3.org/1999/xlink" x="0px" y="0px"
	 viewBox="0 0 652 652" style="enable-background:new 0 0 652 652;" xml:space="preserve">
<style type="text/css">
	.st0{fill:#005CB9;}
	.st1{fill:#00833E;}
	.st2{fill:none;stroke:#00833E;stroke-width:0.491;stroke-miterlimit:3.864;}
</style>
<g>
	<path class="st0" d="M121.5,345.3l-6-27.1c2-3.1,3.9-5.1,5.6-6.4L121.5,345.3 M114.7,314.3l-6.9-31.2c4.5-3.2,8.9-4.7,12.9-5.2
		l0.4,31.1C119.2,309.8,117,311.4,114.7,314.3 M107.1,279.8l-5.8-26.5l18.8-21.9l0.6,44.8C116.5,276.2,111.9,277.1,107.1,279.8
		 M123.8,360.3l-14.5-29.1c0.7-2.3,1.6-4.5,2.7-6.7c0.5-1.1,1.1-2.1,1.6-3L123.8,360.3z M107.5,327.5l-13.9-27.9l0.2-0.3
		c3.4-5.8,7-10.1,10.5-13.3l8.2,31.4c-0.8,1.2-1.6,2.6-2.4,4.1C109.1,323.5,108.3,325.5,107.5,327.5 M91.8,295.7l-9.9-19.8l13-25.8
		l8.5,32.3C99.4,285.3,95.5,289.6,91.8,295.7 M129.7,376l-22.3-26.2c-0.3-4.4-0.1-8.9,0.7-13.3L129.7,376z M104.4,346.3l-18.8-22
		c0.6-6.4,2.2-12.9,5.1-19.3l15.2,27.7C104.8,337.2,104.3,341.8,104.4,346.3 M82.5,320.5l-13.9-16.3l6.3-28.2l13.8,25.2
		C85.4,307.7,83.4,314.2,82.5,320.5 M140,390.4l-28.1-20.1c-1.6-4.6-2.9-9.4-3.8-14.4L140,390.4z M108.6,368l-19.3-13.8
		c-2.3-7.3-3.8-15-3.9-22.9l19.5,21.1C105.5,357.8,106.9,363.1,108.6,368 M84.8,351l-21.5-15.4l-0.7-28.9l19.1,20.7
		C81.4,335.6,82.7,343.5,84.8,351 M153.4,402l-33-13.1c-2.1-3.8-4.3-8.1-6.3-12.7L153.4,402z M118.5,388.1l-16.4-6.5
		c-3.6-5.8-7.2-12.6-10.1-20l19.1,12.5C113.4,379.3,116,384,118.5,388.1 M99,380.4l-33.2-13.1l-7.7-27.9l29.3,19.2
		C90.6,366.8,94.8,374.2,99,380.4 M123.7,310.3c2.8-1.2,4.7-0.3,5.1,0l-5.8,24.4L123.7,310.3z M149.2,223.8l-20.4,86.5
		c-0.4-0.4-2.2-2-5-1.8l0.8-30.7c5.3,0.1,9.4,1.9,11.2,2.8c-1.8-1.1-5.8-3.3-11.2-4l1-36L149.2,223.8z M195.8,409.8
		c-7.9,10.1-23.1,8.6-27.8,8.3c-19-1.2-38.7-9.3-60.7-10.4C70.7,406,20,418.5,20,418.5s29.2-10.9,59.2-14.8l-17.5-31.5l41.8,14.4
		c7.3,9.6,13.6,15.4,13.6,15.4s-5.1-5.5-11.2-14.6l15.8,5.5c5,7.3,9.1,11.6,9.1,11.6s-3.4-4.2-7.7-11.2l45.7,15.8
		C168.8,409.2,179.4,413.1,195.8,409.8"/>
	<path class="st1" d="M520,300.1c0.7-0.1,1.2-0.1,2-0.1c6.2,0,7.8,2.9,7.8,6.6c0,4.8-2.9,6.7-7.4,6.7c-0.9,0-1.5,0-2.5-0.1V300.1
		 M528.4,312.8c3.2-1,5.2-3.5,5.2-6.4c0-4.1-3.3-7.1-10.7-7.1c-2.6,0-3.4,0-5,0.1c-1.6,0.1-4.1,0.2-5,0.2v0.8h0.9c2.3,0,3,0.7,3,3.2
		v16.8c0,2.7-0.8,3.3-3.2,3.3h-0.7v0.8h11.3v-0.8h-0.9c-2.2,0-3.2-0.6-3.2-3v-6.7c0.6,0,1.2,0.1,2,0.1c1.1,0,2.4,0,3.4-0.2
		c0.3,0.5,0.8,1.1,1.1,1.7l1.9,3.2c0.7,1.1,1.3,2.1,1.9,2.9c0,0,2.1,2.7,8,2.7l0-0.8c-3.2,0.1-5.2-3-5.2-3S530.3,315.7,528.4,312.8
		 M539.3,318l0.8,6.1h0.7c0.2-0.2,0.4-0.4,0.8-0.4c0.6,0,3.4,1.1,5.5,1.1c4.7,0,8.1-2.9,8.1-6.8c0-7.3-12.8-8.9-12.8-14.5
		c0-2.2,1.8-3.7,4.5-3.7c2.8,0,5.3,1.8,6.4,4.7h0.7l-0.7-5.1h-0.6c-0.2,0.3-0.4,0.4-0.7,0.4c-1.4,0-2.1-1-5.4-1
		c-4.1,0-7.1,2.5-7.1,5.8c0,7,12.8,8.7,12.8,14.5c0,3.2-2.8,4.7-5.5,4.7c-3.1,0-5.9-2.1-6.7-5.6H539.3z M493.2,337.1
		c1.1-0.1,1.9-0.1,3.1-0.1c9.5,0,12.1,4.5,12.1,10.2c0,7.4-4.5,10.3-11.4,10.3c-1.4,0-2.4,0.1-3.8-0.1V337.1z M506.2,356.8
		c5-1.5,8-5.4,8-10c0-6.3-5.1-11-16.6-11c-4,0-5.3,0.1-7.8,0.2c-2.5,0.1-6.3,0.4-7.8,0.4v1.2h1.4c3.6,0,4.6,1.1,4.6,4.9v26
		c0,4.1-1.3,5.1-5,5.1H482v1.2h17.5v-1.2h-1.4c-3.5,0-5-0.9-5-4.6v-10.4c1,0.1,1.8,0.1,3.2,0.1c1.7,0,3.7-0.1,5.3-0.3
		c0.5,0.8,1.2,1.7,1.8,2.7l3,4.9c1.1,1.8,2,3.3,3,4.6c0,0,3.2,4.2,12.3,4.2l0-1.2c-4.9,0.2-8-4.7-8-4.7S509.1,361.3,506.2,356.8
		 M253.7,337.1c1.1-0.1,1.9-0.1,3.1-0.1c9.5,0,12.1,4.5,12.1,10.2c0,7.4-4.5,10.3-11.4,10.3c-1.4,0-2.4,0.1-3.8-0.1V337.1z
		 M266.7,356.8c5-1.5,8-5.4,8-10c0-6.3-5.1-11-16.6-11c-4,0-5.3,0.1-7.8,0.2c-2.5,0.1-6.3,0.4-7.8,0.4v1.2h1.4
		c3.6,0,4.6,1.1,4.6,4.9v26c0,4.1-1.3,5.1-5,5.1h-1.1v1.2h17.5v-1.2h-1.4c-3.5,0-5-0.9-5-4.6v-10.4c1,0.1,1.8,0.1,3.2,0.1
		c1.7,0,3.7-0.1,5.3-0.3c0.5,0.8,1.2,1.7,1.8,2.7l3,4.9c1.1,1.8,2,3.3,3,4.6c0,0,3.2,4.2,12.4,4.2l0-1.2c-4.9,0.2-8-4.7-8-4.7
		S269.6,361.3,266.7,356.8 M580.7,301h6.9c1.6,0,2.3,0.9,2.9,4.4h0.7l-0.6-6.5h-0.8c-0.1,0.5-0.7,0.6-1.2,0.6h-19.2
		c-0.3,0-0.6,0-0.8-0.1c-0.2-0.1-0.4-0.2-0.4-0.5h-0.8l-0.6,6.5h0.7c0.6-3.5,1.3-4.4,2.9-4.4h6.9v19.7c0,2.2-0.7,2.9-3.2,2.9h-1.5
		v0.8h12.6v-0.8h-1.5c-2.4,0-3.2-0.8-3.2-2.9V301z M565.8,323.7c-2.8,0-3.4-0.8-3.4-3.2v-16.9c0-2.7,0.9-3.2,3.4-3.2v-0.8h-9.7v0.8
		c2.2,0.1,3,0.7,3,2.9v17c0,2.7-0.5,3.3-3,3.4v0.8h9.7V323.7z M508,307.9h-0.8c-0.2,2.3-0.9,3-2.3,3h-7.1V301h8.4
		c1.4,0,2.4,0.7,3,4.1h0.7l-0.3-5.5h-19.1v0.8h0.9c2.7,0,3.2,1,3.2,3.2v16.8c0,2.4-0.6,3.3-3.7,3.3h-1.1v0.8h21.2l0.6-5.9h-0.7
		c-1,3.4-1.8,4.5-4.6,4.5H500c-1.5,0-2.2-0.4-2.2-2.2v-8.5h6.7c1.6,0,2.4,0.3,2.7,3.1h0.8V307.9z M476.8,325.1l8.2-21.3
		c1-2.5,2-3.4,4.1-3.4v-0.8h-9.3v0.8c2.7,0,3.7,0.5,3.7,1.7c0,0.6-0.2,1.4-0.7,2.5l-6.3,16.5l-7.2-17.9c-0.8-1.8,0.1-2.7,3.8-2.8
		v-0.8h-11v0.8c2.4,0,2.9,0.6,3.9,3.1l8.7,21.6H476.8z M321.6,313.2c4.3,4.4,4.8,4.9,6,7.1c-1.1,1-2.8,2.6-5,2.6
		c-2.4,0-4.2-1.8-4.2-4.4C318.4,315.5,320.6,313.9,321.6,313.2 M324,310.6c-1.9-1.6-2.6-2.4-2.6-4.1c0-1.3,0.8-2.5,2-2.5
		c0.8,0,2.2,0.7,2.2,3.2C325.5,309,324.7,309.8,324,310.6 M332.4,309.2v0.9h0.8c0.8,0,1.2,0.1,1.2,0.6c0,0.5-1.5,3.3-4.2,6.7
		c-1.9-2.8-3.3-4.3-5.3-6.1c1.6-0.9,3.6-2.1,3.6-4.5c0-2.3-2.3-3.7-5-3.7c-2.8,0-5.2,1.5-5.2,4.5c0,2,1.1,3.3,2.5,4.7
		c-2.4,0.9-6,2.2-6,6.8c0,4.6,3.8,5.8,5.8,5.8c2.8,0,5.8-2.5,7.5-3.9c0.8,1.4,2.3,3.9,4.9,3.9c1.9,0,3.8-1.3,4.7-1.9l-0.5-0.8
		c-0.8,0.5-1.4,0.9-2.3,0.9c-1.4,0-3-2.6-4.3-4.8c0.9-1.1,3-3.8,4.6-6.9c0.6-1.1,1-1.3,3.4-1.3v-0.9H332.4z M173.7,301h6.9
		c1.6,0,2.3,0.9,2.9,4.4h0.7l-0.6-6.5h-0.8c-0.1,0.5-0.7,0.6-1.2,0.6h-19.2c-0.3,0-0.6,0-0.8-0.1c-0.2-0.1-0.4-0.2-0.4-0.5h-0.8
		l-0.6,6.5h0.7c0.6-3.5,1.3-4.4,2.9-4.4h6.9v19.7c0,2.2-0.7,2.9-3.2,2.9h-1.5v0.8h12.6v-0.8h-1.5c-2.4,0-3.2-0.8-3.2-2.9V301z
		 M304.5,311.7h-6.9l3.4-9.3L304.5,311.7z M305.1,313.4l2.7,7.3c0.2,0.4,0.4,1,0.4,1.6c0,1.1-0.8,1.4-3.1,1.4h-1v0.8h11v-0.8
		c-2,0-2.8-0.4-3.6-2.5l-8.3-22.1h-3.5l0.4,0.9l-7.3,19.8c-1.3,3.5-1.7,3.9-4.3,3.9v0.8h9.2v-0.8H297c-2.2,0-3.2-0.4-3.2-1.5
		c0-0.6,0.5-1.8,0.8-2.5l2.3-6.3H305.1z M355.8,324.4l9.9-21.3L367,321c0.2,2.1-1.7,2.6-3.6,2.6v0.8h10.3v-0.8c-2.9,0-3.2,0-3.5-3.7
		l-1.3-18.1c-0.1-1.4,0.7-1.4,2.6-1.6v-0.7h-5.9l-9.6,20.1l-9.6-20.1h-6v0.7c2.5,0.2,2.6,0.9,2.4,3.5l-1,15.5
		c-0.2,3.6-0.6,4.3-3.5,4.3v0.8h8.3v-0.8c-1.8-0.1-3.3-0.5-3.2-2.6l1.1-18l10.3,21.3H355.8z M259.1,318.4l0.8,6.1h0.7
		c0.2-0.2,0.4-0.4,0.8-0.4c0.6,0,3.3,1.1,5.5,1.1c4.7,0,8.1-2.9,8.1-6.8c0-7.3-12.8-8.9-12.8-14.5c0-2.2,1.8-3.7,4.5-3.7
		c2.8,0,5.3,1.8,6.4,4.7h0.7l-0.7-5.1h-0.6c-0.2,0.3-0.4,0.4-0.7,0.4c-1.4,0-2.1-1-5.4-1c-4.1,0-7.1,2.5-7.1,5.8
		c0,7,12.8,8.7,12.8,14.5c0,3.2-2.8,4.7-5.5,4.7c-3.1,0-5.9-2.1-6.7-5.6H259.1z M203,307.9h-0.8c-0.2,2.3-0.9,3-2.3,3h-7.1V301h8.4
		c1.4,0,2.4,0.7,2.9,4.1h0.7l-0.3-5.5h-19.1v0.8h0.9c2.7,0,3.2,1,3.2,3.2v16.8c0,2.4-0.6,3.3-3.7,3.3h-1.1v0.8h21.2l0.6-5.9h-0.7
		c-1,3.4-1.8,4.5-4.6,4.5H195c-1.5,0-2.2-0.4-2.2-2.2v-8.5h6.7c1.6,0,2.4,0.3,2.7,3.1h0.8V307.9z M221.4,313.1l-6.3,7.6
		c-1.6,1.9-1.4,2.9,1.2,2.9h0.8v0.8h-9.5v-0.8c2.8-0.2,3.9-0.9,6.7-4.3l6.2-7.5l-6.2-7.8c-2.5-3.1-3.5-3.7-6.7-3.8v-0.8h11.9v0.8
		c-3.5,0-3.7,0.8-2.4,2.4l5.4,6.7l4.3-5.1c2.4-2.8,2.3-3.9,0.2-3.9h-1.2v-0.8h9.6v0.8c-2.6,0-4.5,1.2-6.8,4.1l-5.1,6.3
		c0,0,6.2,9,9.4,11.7c0.1,0,0.6,0.7,1.3,0.7c0.9,0,1.2-1.5,1.9-3.4l7.3-19.8L243,299h3.5l8.3,22.1c0.8,2.1,1.6,2.5,3.6,2.5v0.8h-11
		v-0.8h1c2.3,0,3.1-0.2,3.1-1.4c0-0.6-0.3-1.2-0.4-1.6l-2.7-7.3h-8.3l-2.3,6.3c-0.3,0.8-0.8,2-0.8,2.5c0,1.1,1,1.5,3.2,1.5h0.6v0.8
		h-15v-0.8c2.8,0,3.4-0.7,1.4-3.2L221.4,313.1z M247.8,311.7l-3.5-9.3l-3.4,9.3H247.8z M461,323.7c-2.8,0-3.4-0.8-3.4-3.2v-16.9
		c0-2.7,0.9-3.2,3.4-3.2v-0.8h-9.7v0.8c2.2,0.1,3,0.7,3,2.9v17c0,2.7-0.5,3.3-3,3.4v0.8h9.7V323.7z M409.1,299.6v0.8
		c3.3,0.2,3.9,0.8,3.9,4.7v9.3c0,6.8-4.6,8.7-9.1,8.7c-5.9,0-9.1-3.2-9.1-8.6v-11.1c0-2.3,1-2.9,3.2-2.9h0.4v-0.8h-10.2v0.8
		c2.7,0,3.4,0.4,3.4,3V315c0,5.7,3.9,10,11.5,10c8.7,0,11.8-5.3,11.8-10.2V304c0-2.6,1-3.6,3.6-3.7v-0.8H409.1z M446.5,324.7v-22.3
		c0-1.6,0.6-2.1,3.6-2.1v-0.8h-9.3v0.8c3.2,0.1,3.9,0.5,3.9,3v15.9l-18.8-19.6h-6.3v0.8c1.4,0,2.4,0.4,3.4,1V321
		c0,1.8-0.8,2.7-3.3,2.7l-0.2,0.8h9.3v-0.8c-3.4,0-4-0.6-4-3.5v-17.1l20.7,21.6H446.5z M607.4,312.8L601,303c-1.2-1.8-1-2.6,2.1-2.6
		v-0.8h-10.6v0.8c2.6,0.1,3.5,0.6,5.5,3.7l7.1,11.1v5.6c0,2-0.7,2.9-3.2,2.9h-0.8v0.8h11v-0.8h-0.5c-2.4,0-3.2-0.8-3.2-3v-6
		l6.6-11.2c1.1-1.9,2.3-3,5-3.2v-0.8h-9v0.8c2.6,0,3.3,0.7,2,2.9L607.4,312.8z M290.8,337.2c1.5-0.2,2.8-0.2,4.3-0.2
		c8.2,0,10.2,4.8,10.2,9.6c0,6.3-4.3,10.8-11.1,10.8c-1.2,0-2.5-0.3-3.3-0.5V337.2z M290.8,358.1c1.9,0.4,3.4,0.5,5.3,0.5
		c9.2,0,15-4.6,15-11.8c0-4.8-3-11-15.9-11c-1.7,0-4.6,0.1-7.7,0.2c-3,0.1-5.4,0.3-7.1,0.4v1.2h2.4c2.2,0,2.9,1,2.9,3.3v29.3
		c0,2.9-0.4,3.6-3.6,3.6v1.2h15.4v-1.2h-1.6c-3.9,0-5-1.3-5-4.8V358.1z M238.7,356.6c0,8.8-4.8,17.7-14.9,17.7
		c-10,0-17.8-8.2-17.8-19.8c0-7.4,4.3-17.6,15.2-17.6C231.3,337,238.7,345.1,238.7,356.6 M244.5,354.6c0-11.1-10-19.1-21.7-19.1
		c-13.2,0-22.7,8.7-22.7,21.1c0,11.6,10.2,19.4,22.4,19.4C234.4,375.9,244.5,367.1,244.5,354.6 M358.6,365.5l1.3,9.4h1.1
		c0.2-0.4,0.7-0.7,1.2-0.7c0.9,0,5.2,1.7,8.6,1.7c7.3,0,12.6-4.5,12.6-10.6c0-11.4-19.9-13.8-19.9-22.5c0-3.5,2.8-5.8,6.9-5.8
		c4.3,0,8.2,2.8,10,7.3h1.1l-1.1-7.9h-1c-0.4,0.5-0.6,0.6-1.1,0.6c-2.2,0-3.2-1.6-8.4-1.6c-6.3,0-11,3.8-11,9
		c0,10.8,19.9,13.6,19.9,22.5c0,4.9-4.4,7.3-8.5,7.3c-4.8,0-9.2-3.2-10.5-8.7H358.6z M344.7,336.4v1.2c5.1,0.2,6.1,1.3,6.1,7.2v14.4
		c0,10.5-7.1,13.4-14.1,13.4c-9.2,0-14.1-5-14.1-13.4v-17.2c0-3.6,1.5-4.5,4.9-4.5h0.6v-1.2h-15.9v1.2c4.2,0.1,5.3,0.7,5.3,4.6v18.1
		c0,8.9,6.1,15.6,17.9,15.6c13.4,0,18.3-8.2,18.3-15.9v-16.7c0-4,1.5-5.6,5.6-5.7v-1.2H344.7z M432.5,346.5l-0.6-9H431
		c-0.1,0.2-0.4,0.4-1.1,0.4c-1.9,0-5.3-2.5-13.1-2.5c-12.9,0-22.2,8.7-22.2,20.7c0,11.5,9,19.8,21.6,19.8c7.3,0,10-2.2,14-1.7
		c1.5-2.4,3.2-6.3,4-9H433c-4.2,7.5-10.2,9.2-15.1,9.2c-9.4,0-17.5-8.2-17.5-19.5c0-10.4,6.4-17.9,16.8-17.9
		c6.8,0,12.1,3.8,14.1,9.5H432.5z M468.9,356.5v12.6c0,3.2-0.9,4.6-4.9,4.6h-1.9v1.2h17.5v-1.2H479c-3.7,0-5-1-5-5.4v-25.7
		c0-3.8,1-5,4.7-5.1v-1.2h-15.9v1.2h1.2c3.8,0,4.9,1.2,4.9,4.5v12.2h-24.3v-10.8c0-4.8,0.7-5.9,5.1-5.9v-1.2h-14.7v1.2
		c3.4,0.2,4.5,1.2,4.5,4.4v27.3c0,3.5-1.2,4.5-4.9,4.5h-0.4v1.2h15.5v-1.2h-0.2c-4.2,0-5-1.4-5-5.5v-11.8H468.9z M536.3,373.7
		c-4.3,0-5.3-1.2-5.3-4.9v-26.3c0-4.2,1.4-5,5.3-5v-1.2h-15.1v1.2c3.5,0.2,4.6,1.1,4.6,4.5v26.4c0,4.2-0.8,5.1-4.6,5.3v1.2h15.1
		V373.7z M537.7,365.5l1.3,9.4h1.1c0.2-0.4,0.7-0.7,1.2-0.7c0.9,0,5.2,1.7,8.6,1.7c7.2,0,12.6-4.5,12.6-10.6
		c0-11.4-19.9-13.8-19.9-22.5c0-3.5,2.8-5.8,6.9-5.8c4.3,0,8.2,2.8,10,7.3h1.1l-1.1-7.9h-1c-0.4,0.5-0.6,0.6-1.1,0.6
		c-2.2,0-3.2-1.6-8.4-1.6c-6.3,0-11,3.8-11,9c0,10.8,19.9,13.6,19.9,22.5c0,4.9-4.4,7.3-8.5,7.3c-4.8,0-9.2-3.2-10.5-8.7H537.7z
		 M584.2,338.6H595c2.5,0,3.6,1.4,4.5,6.9h1.1l-1-10h-1.2c-0.1,0.7-1.1,0.9-1.9,0.9h-29.8c-0.4,0-0.9-0.1-1.2-0.2
		c-0.4-0.1-0.6-0.4-0.7-0.7h-1.2l-1,10h1.1c0.9-5.5,2-6.9,4.5-6.9H579v30.6c0,3.3-1.1,4.5-4.9,4.5h-2.3v1.2h19.5v-1.2h-2.3
		c-3.8,0-4.9-1.2-4.9-4.5V338.6z M617.3,373.7c-4.3,0-5.3-1.2-5.3-4.9v-26.3c0-4.2,1.4-5,5.3-5v-1.2h-15v1.2
		c3.5,0.2,4.6,1.1,4.6,4.5v26.4c0,4.2-0.8,5.1-4.6,5.3v1.2h15V373.7z M197.9,346.5l-0.6-9h-0.9c-0.1,0.2-0.4,0.4-1.1,0.4
		c-1.9,0-5.3-2.5-13.1-2.5c-12.9,0-22.2,8.7-22.2,20.7c0,11.5,9,19.8,21.6,19.8c7.3,0,10-2.2,14-1.7c1.5-2.4,3.2-6.3,4-9h-1.2
		c-4.2,7.5-10.2,9.2-15.1,9.2c-9.4,0-17.5-8.2-17.5-19.5c0-10.4,6.4-17.9,16.8-17.9c6.8,0,12.1,3.8,14.1,9.5H197.9z"/>
	<path class="st2" d="M197.9,346.5l-0.6-9h-0.9c-0.1,0.2-0.4,0.4-1.1,0.4c-1.9,0-5.3-2.5-13.1-2.5c-12.9,0-22.2,8.7-22.2,20.7
		c0,11.5,9,19.8,21.6,19.8c7.3,0,10-2.2,14-1.7c1.5-2.4,3.2-6.3,4-9h-1.2c-4.2,7.5-10.2,9.2-15.1,9.2c-9.4,0-17.5-8.2-17.5-19.5
		c0-10.4,6.4-17.9,16.8-17.9c6.8,0,12.1,3.8,14.1,9.5H197.9z"/>
	<path class="st2" d="M617.3,373.7c-4.3,0-5.3-1.2-5.3-4.9v-26.3c0-4.2,1.4-5,5.3-5v-1.2h-15.1v1.2c3.5,0.2,4.6,1.1,4.6,4.5v26.4
		c0,4.1-0.8,5.1-4.6,5.3v1.2h15.1V373.7z"/>
	<path class="st2" d="M584.2,338.6H595c2.5,0,3.6,1.4,4.5,6.9h1.1l-1-10h-1.2c-0.1,0.7-1.1,0.9-1.9,0.9h-29.8
		c-0.4,0-0.9-0.1-1.2-0.2c-0.4-0.1-0.6-0.4-0.7-0.7h-1.2l-1,10h1.1c0.9-5.4,2-6.9,4.5-6.9H579v30.6c0,3.3-1.1,4.5-4.9,4.5h-2.3v1.2
		h19.5v-1.2h-2.3c-3.8,0-4.9-1.2-4.9-4.5V338.6z"/>
	<path class="st2" d="M537.7,365.5l1.3,9.4h1c0.3-0.4,0.7-0.7,1.2-0.7c0.9,0,5.2,1.7,8.6,1.7c7.3,0,12.6-4.5,12.6-10.6
		c0-11.4-19.9-13.8-19.9-22.5c0-3.5,2.9-5.8,6.9-5.8c4.3,0,8.2,2.9,10,7.3h1.1l-1.1-7.9h-1c-0.4,0.5-0.6,0.6-1.1,0.6
		c-2.2,0-3.2-1.5-8.4-1.5c-6.3,0-11,3.8-11,9c0,10.8,19.9,13.6,19.9,22.5c0,4.9-4.4,7.3-8.5,7.3c-4.8,0-9.2-3.2-10.5-8.7H537.7z"/>
	<path class="st2" d="M536.3,373.7c-4.3,0-5.3-1.2-5.3-4.9v-26.3c0-4.1,1.4-5,5.3-5v-1.2h-15v1.2c3.5,0.2,4.6,1.1,4.6,4.5v26.4
		c0,4.2-0.8,5.1-4.6,5.3v1.2h15V373.7z"/>
	<path class="st2" d="M468.9,356.5v12.6c0,3.2-0.9,4.6-4.9,4.6h-1.9v1.2h17.5v-1.2H479c-3.7,0-5-1-5-5.4v-25.7c0-3.8,1-5,4.7-5.1
		v-1.2h-15.9v1.2h1.2c3.8,0,4.9,1.2,4.9,4.5v12.2h-24.3v-10.8c0-4.8,0.7-5.9,5.1-5.9v-1.2h-14.7v1.2c3.4,0.3,4.5,1.2,4.5,4.4v27.3
		c0,3.5-1.2,4.5-4.9,4.5h-0.4v1.2h15.5v-1.2h-0.2c-4.2,0-5-1.4-5-5.5v-11.8H468.9z"/>
	<path class="st2" d="M432.5,346.5l-0.6-9H431c-0.1,0.2-0.4,0.4-1.1,0.4c-1.9,0-5.3-2.5-13.1-2.5c-12.9,0-22.2,8.7-22.2,20.7
		c0,11.5,9,19.8,21.6,19.8c7.3,0,10-2.2,14-1.7c1.5-2.4,3.2-6.3,4-9H433c-4.2,7.5-10.2,9.2-15.1,9.2c-9.4,0-17.5-8.2-17.5-19.5
		c0-10.4,6.4-17.9,16.8-17.9c6.8,0,12.1,3.8,14.1,9.5H432.5z"/>
	<path class="st2" d="M344.7,336.4v1.2c5.1,0.2,6.1,1.3,6.1,7.2v14.4c0,10.5-7.1,13.4-14.1,13.4c-9.2,0-14.1-5-14.1-13.4V342
		c0-3.6,1.5-4.5,4.9-4.5h0.6v-1.2h-15.9v1.2c4.2,0.1,5.3,0.7,5.3,4.6v18.1c0,8.9,6.1,15.6,17.9,15.6c13.4,0,18.3-8.2,18.3-15.9
		v-16.7c0-4,1.5-5.6,5.6-5.7v-1.2H344.7z"/>
	<path class="st2" d="M358.6,365.5l1.3,9.4h1.1c0.2-0.4,0.7-0.7,1.2-0.7c0.9,0,5.2,1.7,8.6,1.7c7.2,0,12.6-4.5,12.6-10.6
		c0-11.4-19.9-13.8-19.9-22.5c0-3.5,2.9-5.8,6.9-5.8c4.3,0,8.2,2.9,10,7.3h1.1l-1.1-7.9h-1c-0.4,0.5-0.6,0.6-1.1,0.6
		c-2.2,0-3.2-1.5-8.4-1.5c-6.3,0-11,3.8-11,9c0,10.8,19.9,13.6,19.9,22.5c0,4.9-4.4,7.3-8.5,7.3c-4.8,0-9.2-3.2-10.5-8.7H358.6z"/>
	<path class="st2" d="M244.5,354.6c0-11.1-10-19.1-21.7-19.1c-13.2,0-22.7,8.7-22.7,21.1c0,11.6,10.2,19.4,22.4,19.4
		C234.4,375.9,244.5,367.1,244.5,354.6z"/>
	<path class="st2" d="M238.7,356.6c0,8.8-4.8,17.7-14.9,17.7c-10,0-17.8-8.2-17.8-19.8c0-7.4,4.3-17.6,15.2-17.6
		C231.3,337,238.7,345.1,238.7,356.6z"/>
	<path class="st2" d="M290.8,358.1c1.9,0.4,3.4,0.5,5.3,0.5c9.2,0,15-4.6,15-11.8c0-4.8-3-11-15.9-11c-1.7,0-4.6,0.1-7.7,0.2
		c-3,0.1-5.4,0.3-7.1,0.4v1.2h2.4c2.2,0,2.9,1,2.9,3.3v29.3c0,2.9-0.4,3.6-3.6,3.6v1.2h15.4v-1.2h-1.6c-3.9,0-5-1.3-5-4.8V358.1z"/>
	<path class="st2" d="M290.8,337.2c1.5-0.2,2.8-0.2,4.3-0.2c8.2,0,10.2,4.8,10.2,9.6c0,6.3-4.3,10.8-11.1,10.8
		c-1.2,0-2.5-0.3-3.3-0.5V337.2z"/>
	<path class="st2" d="M607.4,312.8L601,303c-1.2-1.8-1-2.6,2.1-2.6v-0.8h-10.6v0.8c2.6,0.1,3.5,0.6,5.5,3.7l7.1,11.1v5.6
		c0,2-0.7,2.9-3.2,2.9h-0.8v0.8h11v-0.8h-0.5c-2.4,0-3.2-0.8-3.2-3v-6l6.6-11.2c1.1-1.9,2.3-2.9,5-3.2v-0.8h-9v0.8
		c2.5,0,3.3,0.7,2,2.9L607.4,312.8z"/>
	<path class="st2" d="M446.5,324.7v-22.3c0-1.6,0.6-2.1,3.6-2.1v-0.8h-9.3v0.8c3.2,0.1,3.9,0.5,3.9,2.9v15.9l-18.8-19.6h-6.3v0.8
		c1.4,0,2.4,0.4,3.4,1V321c0,1.8-0.8,2.7-3.3,2.7l-0.2,0.8h9.3v-0.8c-3.4,0-4-0.6-4-3.5v-17.1l20.7,21.6H446.5z"/>
	<path class="st2" d="M409.1,299.6v0.8c3.3,0.2,3.9,0.8,3.9,4.7v9.3c0,6.8-4.6,8.7-9.1,8.7c-5.9,0-9.1-3.2-9.1-8.6v-11.1
		c0-2.3,1-2.9,3.2-2.9h0.4v-0.8h-10.2v0.8c2.7,0,3.4,0.4,3.4,3V315c0,5.7,3.9,10,11.5,10c8.7,0,11.8-5.3,11.8-10.3V304
		c0-2.6,1-3.6,3.6-3.7v-0.8H409.1z"/>
	<path class="st2" d="M461,323.7c-2.8,0-3.4-0.8-3.4-3.2v-16.9c0-2.7,0.9-3.2,3.4-3.2v-0.8h-9.7v0.8c2.2,0.1,3,0.7,3,2.9v17
		c0,2.7-0.5,3.3-3,3.4v0.8h9.7V323.7z"/>
	<polygon class="st2" points="247.8,311.7 244.3,302.4 240.9,311.7 	"/>
	<path class="st2" d="M221.4,313.1l-6.3,7.6c-1.6,1.9-1.4,2.9,1.2,2.9h0.8v0.8h-9.5v-0.8c2.8-0.2,3.9-0.9,6.7-4.3l6.2-7.5l-6.2-7.8
		c-2.5-3.1-3.5-3.7-6.7-3.8v-0.8h11.9v0.8c-3.5,0-3.7,0.8-2.4,2.4l5.4,6.7l4.3-5.1c2.4-2.8,2.3-3.9,0.2-3.9h-1.2v-0.8h9.6v0.8
		c-2.6,0-4.5,1.2-6.8,4.1l-5.1,6.3c0,0,6.2,9,9.4,11.7c0.1,0,0.6,0.7,1.3,0.7c0.9,0,1.2-1.5,1.9-3.4l7.3-19.8L243,299h3.5l8.3,22.1
		c0.8,2.1,1.6,2.5,3.6,2.5v0.8h-11v-0.8h1c2.3,0,3.1-0.2,3.1-1.4c0-0.6-0.3-1.2-0.4-1.6l-2.7-7.3h-8.3l-2.3,6.3
		c-0.3,0.8-0.8,2-0.8,2.5c0,1.1,1,1.5,3.2,1.5h0.6v0.8h-15v-0.8c2.8,0,3.4-0.7,1.4-3.2L221.4,313.1z"/>
	<path class="st2" d="M203,307.9h-0.8c-0.2,2.3-0.9,3-2.3,3h-7.1V301h8.4c1.4,0,2.4,0.7,2.9,4.1h0.7l-0.3-5.5h-19.1v0.8h0.9
		c2.7,0,3.2,1,3.2,3.2v16.8c0,2.4-0.6,3.3-3.7,3.3h-1.1v0.8h21.2l0.6-5.9h-0.7c-1,3.4-1.8,4.5-4.6,4.5H195c-1.5,0-2.2-0.4-2.2-2.2
		v-8.5h6.7c1.6,0,2.4,0.3,2.7,3.2h0.8V307.9z"/>
	<path class="st2" d="M259.1,318.4l0.8,6.1h0.7c0.2-0.2,0.4-0.4,0.8-0.4c0.6,0,3.3,1.1,5.5,1.1c4.7,0,8.1-2.9,8.1-6.8
		c0-7.3-12.8-8.9-12.8-14.5c0-2.2,1.8-3.7,4.5-3.7c2.8,0,5.3,1.8,6.4,4.7h0.7l-0.7-5.1h-0.6c-0.2,0.3-0.4,0.4-0.7,0.4
		c-1.4,0-2.1-1-5.4-1c-4.1,0-7.1,2.5-7.1,5.8c0,7,12.8,8.7,12.8,14.5c0,3.2-2.8,4.7-5.5,4.7c-3.1,0-5.9-2.1-6.7-5.6H259.1z"/>
	<path class="st2" d="M355.8,324.4l9.9-21.3L367,321c0.2,2.1-1.7,2.6-3.6,2.6v0.8h10.3v-0.8c-2.9,0-3.2,0-3.5-3.7l-1.3-18.1
		c-0.1-1.4,0.7-1.4,2.6-1.6v-0.7h-5.9l-9.6,20.1l-9.6-20.1h-6v0.7c2.5,0.2,2.6,0.9,2.4,3.5l-1,15.5c-0.2,3.6-0.6,4.3-3.5,4.3v0.8
		h8.3v-0.8c-1.8-0.1-3.3-0.5-3.2-2.6l1.1-18l10.3,21.3H355.8z"/>
	<path class="st2" d="M305.1,313.4l2.7,7.3c0.2,0.4,0.4,1,0.4,1.6c0,1.1-0.8,1.4-3.1,1.4h-1v0.8h11v-0.8c-2,0-2.8-0.4-3.6-2.5
		l-8.3-22.1h-3.5l0.4,0.9l-7.3,19.8c-1.3,3.5-1.7,3.9-4.3,3.9v0.8h9.2v-0.8H297c-2.2,0-3.2-0.4-3.2-1.5c0-0.6,0.5-1.8,0.8-2.5
		l2.3-6.3H305.1z"/>
	<polygon class="st2" points="304.5,311.7 297.6,311.7 300.9,302.4 	"/>
	<path class="st2" d="M173.7,301h6.9c1.6,0,2.3,0.9,2.9,4.4h0.7l-0.6-6.5h-0.8c-0.1,0.5-0.7,0.6-1.2,0.6h-19.2c-0.3,0-0.6,0-0.8-0.1
		c-0.2-0.1-0.4-0.2-0.4-0.5h-0.8l-0.6,6.5h0.7c0.6-3.5,1.3-4.4,2.9-4.4h6.9v19.7c0,2.2-0.7,2.9-3.2,2.9h-1.5v0.8h12.6v-0.8h-1.5
		c-2.4,0-3.2-0.8-3.2-2.9V301z"/>
	<path class="st2" d="M332.4,309.2v0.9h0.8c0.8,0,1.2,0.1,1.2,0.6c0,0.5-1.5,3.3-4.2,6.7c-1.9-2.8-3.3-4.3-5.3-6.1
		c1.5-0.9,3.6-2.1,3.6-4.5c0-2.3-2.3-3.7-5-3.7c-2.8,0-5.2,1.5-5.2,4.5c0,2,1.1,3.3,2.5,4.7c-2.4,0.9-6,2.2-6,6.8
		c0,4.6,3.8,5.8,5.8,5.8c2.8,0,5.8-2.5,7.5-3.9c0.8,1.4,2.3,3.9,4.9,3.9c1.9,0,3.8-1.3,4.7-1.9l-0.5-0.8c-0.8,0.5-1.4,0.9-2.3,0.9
		c-1.4,0-3-2.6-4.3-4.8c0.9-1.1,3-3.8,4.6-6.9c0.6-1.1,1-1.3,3.4-1.3v-0.9H332.4z"/>
	<path class="st2" d="M324,310.6c-1.9-1.6-2.6-2.4-2.6-4.1c0-1.3,0.8-2.5,2-2.5c0.8,0,2.2,0.7,2.2,3.2
		C325.5,309,324.7,309.8,324,310.6z"/>
	<path class="st2" d="M321.6,313.2c4.3,4.4,4.8,4.9,6,7.1c-1.1,1-2.8,2.6-5,2.6c-2.4,0-4.2-1.8-4.2-4.4
		C318.4,315.5,320.6,313.9,321.6,313.2z"/>
	<path class="st2" d="M476.8,325.1l8.2-21.3c1-2.5,2-3.4,4.1-3.4v-0.8h-9.3v0.8c2.7,0,3.7,0.5,3.7,1.7c0,0.6-0.2,1.4-0.7,2.5
		l-6.3,16.5l-7.2-17.9c-0.8-1.8,0.1-2.7,3.8-2.8v-0.8h-11v0.8c2.4,0,2.9,0.6,3.9,3.1l8.7,21.6H476.8z"/>
	<path class="st2" d="M508,307.9h-0.8c-0.2,2.3-0.9,3-2.3,3h-7.1V301h8.4c1.4,0,2.4,0.7,3,4.1h0.7l-0.3-5.5h-19.1v0.8h0.9
		c2.7,0,3.2,1,3.2,3.2v16.8c0,2.4-0.6,3.3-3.7,3.3h-1.1v0.8h21.2l0.6-5.9h-0.7c-1,3.4-1.8,4.5-4.6,4.5H500c-1.5,0-2.2-0.4-2.2-2.2
		v-8.5h6.7c1.6,0,2.4,0.3,2.7,3.2h0.8V307.9z"/>
	<path class="st2" d="M565.8,323.7c-2.8,0-3.4-0.8-3.4-3.2v-16.9c0-2.7,0.9-3.2,3.4-3.2v-0.8h-9.7v0.8c2.2,0.1,3,0.7,3,2.9v17
		c0,2.7-0.5,3.3-3,3.4v0.8h9.7V323.7z"/>
	<path class="st2" d="M580.7,301h6.9c1.6,0,2.3,0.9,2.9,4.4h0.7l-0.6-6.5h-0.8c-0.1,0.5-0.7,0.6-1.2,0.6h-19.2c-0.3,0-0.6,0-0.8-0.1
		c-0.2-0.1-0.4-0.2-0.4-0.5h-0.8l-0.6,6.5h0.7c0.6-3.5,1.3-4.4,2.9-4.4h6.9v19.7c0,2.2-0.7,2.9-3.1,2.9h-1.5v0.8h12.6v-0.8h-1.5
		c-2.4,0-3.2-0.8-3.2-2.9V301z"/>
	<path class="st2" d="M266.7,356.8c5-1.5,8-5.4,8-10c0-6.3-5.1-11-16.6-11c-4,0-5.3,0.1-7.8,0.2c-2.5,0.1-6.3,0.4-7.8,0.4v1.2h1.4
		c3.6,0,4.6,1.1,4.6,4.9v26c0,4.1-1.3,5.1-5,5.1h-1.1v1.2h17.5v-1.2h-1.4c-3.5,0-5-0.9-5-4.6v-10.5c1,0.1,1.8,0.1,3.2,0.1
		c1.7,0,3.7-0.1,5.3-0.3c0.5,0.8,1.2,1.7,1.8,2.7l3,4.9c1.1,1.8,2,3.3,3,4.6c0,0,3.2,4.2,12.3,4.2l0-1.2c-4.9,0.2-8-4.7-8-4.7
		S269.6,361.3,266.7,356.8z"/>
	<path class="st2" d="M253.7,337.1c1.1-0.1,1.9-0.1,3.1-0.1c9.5,0,12.1,4.5,12.1,10.2c0,7.4-4.5,10.3-11.4,10.3
		c-1.4,0-2.4,0.1-3.8-0.1V337.1z"/>
	<path class="st2" d="M506.2,356.8c5-1.5,8-5.4,8-10c0-6.3-5.1-11-16.6-11c-4,0-5.3,0.1-7.8,0.2c-2.5,0.1-6.3,0.4-7.8,0.4v1.2h1.4
		c3.6,0,4.6,1.1,4.6,4.9v26c0,4.1-1.3,5.1-5,5.1H482v1.2h17.5v-1.2h-1.4c-3.5,0-5-0.9-5-4.6v-10.4c1,0.1,1.8,0.1,3.2,0.1
		c1.7,0,3.7-0.1,5.3-0.3c0.5,0.8,1.2,1.7,1.8,2.7l3,4.9c1.1,1.8,2,3.3,3,4.6c0,0,3.2,4.2,12.3,4.2l0-1.2c-4.9,0.2-8-4.7-8-4.7
		S509.1,361.3,506.2,356.8z"/>
	<path class="st2" d="M493.2,337.1c1.1-0.1,1.9-0.1,3.1-0.1c9.5,0,12.1,4.5,12.1,10.2c0,7.4-4.5,10.3-11.4,10.3
		c-1.4,0-2.4,0.1-3.8-0.1V337.1z"/>
	<path class="st2" d="M539.3,318l0.8,6.1h0.7c0.2-0.2,0.4-0.4,0.8-0.4c0.6,0,3.3,1.1,5.5,1.1c4.7,0,8.1-2.9,8.1-6.8
		c0-7.3-12.8-8.9-12.8-14.5c0-2.2,1.8-3.7,4.5-3.7c2.8,0,5.3,1.8,6.4,4.7h0.7l-0.7-5.1h-0.6c-0.2,0.3-0.4,0.4-0.7,0.4
		c-1.4,0-2.1-1-5.4-1c-4.1,0-7.1,2.5-7.1,5.8c0,7,12.8,8.7,12.8,14.5c0,3.2-2.8,4.7-5.5,4.7c-3.1,0-5.9-2.1-6.7-5.6H539.3z"/>
	<path class="st2" d="M528.4,312.8c3.2-1,5.2-3.5,5.2-6.4c0-4.1-3.3-7.1-10.7-7.1c-2.6,0-3.4,0-5,0.1c-1.6,0.1-4.1,0.2-5,0.2v0.8
		h0.9c2.3,0,3,0.7,3,3.2v16.8c0,2.7-0.8,3.3-3.2,3.3h-0.7v0.8h11.3v-0.8h-0.9c-2.2,0-3.2-0.6-3.2-3v-6.7c0.6,0,1.2,0.1,2,0.1
		c1.1,0,2.4,0,3.4-0.2c0.3,0.5,0.8,1.1,1.1,1.7l1.9,3.2c0.7,1.1,1.3,2.1,1.9,2.9c0,0,2.1,2.7,8,2.7l0-0.8c-3.2,0.1-5.2-3-5.2-3
		S530.3,315.7,528.4,312.8z"/>
	<path class="st2" d="M520,300.1c0.7-0.1,1.2-0.1,2-0.1c6.2,0,7.8,2.9,7.8,6.6c0,4.8-2.9,6.7-7.4,6.7c-0.9,0-1.5,0-2.5-0.1V300.1z"
		/>
</g>
</svg>
